<svg width="33" height="34" fill="none" xmlns="http://www.w3.org/2000/svg"><path fill-rule="evenodd" clip-rule="evenodd" d="M15.178.467c-4.09.407-7.593 2.019-10.364 4.77C2.274 7.756.706 10.87.119 14.557c-.159.998-.159 3.56 0 4.558.59 3.707 2.133 6.764 4.703 9.314 2.613 2.595 5.845 4.174 9.614 4.698.92.128 3.39.11 4.359-.033 3.631-.533 6.84-2.127 9.393-4.668 2.613-2.599 4.203-5.808 4.728-9.539.112-.8.112-3.302 0-4.102-.525-3.736-2.111-6.935-4.728-9.539-2.512-2.499-5.597-4.058-9.167-4.632-.777-.125-3.157-.217-3.843-.148zm5.107 7.01c.535.033 1.203.107 1.485.165 1.863.38 3.236 1.58 3.835 3.351.295.872.337 1.443.372 4.979.045 4.68-.048 5.963-.513 7.076-.476 1.137-1.26 1.977-2.342 2.505-1.306.639-1.657.674-6.62.674-4.972 0-5.294-.033-6.648-.683-.584-.281-.748-.398-1.23-.878-.411-.411-.623-.686-.82-1.067-.68-1.308-.736-1.728-.776-5.896-.045-4.591.048-5.93.483-7.015a4.57 4.57 0 011.107-1.676c.981-.974 2.121-1.417 3.937-1.53 1.11-.07 6.606-.073 7.73-.004zM13.628 9.15c-1.394.038-1.763.068-2.177.178-.736.196-1.195.443-1.633.877-.438.435-.688.894-.88 1.62-.31 1.165-.31 8.861 0 10.026.192.727.442 1.185.88 1.62.44.437.901.684 1.633.875.418.11.826.14 2.533.19 2.235.064 5.966.023 6.875-.077 1.75-.192 2.792-1.04 3.208-2.61.306-1.152.305-8.872 0-10.024-.193-.726-.442-1.185-.881-1.62-.439-.436-.9-.683-1.633-.875-.786-.206-4.125-.282-7.925-.18zm8.343 1.603a1.3 1.3 0 01.642.619c.312.724-.245 1.556-1.041 1.556-.609 0-1.13-.515-1.13-1.115 0-.776.802-1.332 1.53-1.06zm-3.951 1.495a4.82 4.82 0 011.91 1.188c.917.91 1.351 1.89 1.402 3.164.034.867-.039 1.334-.317 2.028-.525 1.308-1.61 2.324-2.995 2.805-.48.166-.588.18-1.518.18s-1.037-.014-1.517-.18a4.897 4.897 0 01-1.91-1.192 4.85 4.85 0 01-1.202-1.896c-.168-.477-.18-.584-.18-1.507 0-.923.012-1.03.18-1.506.563-1.597 1.791-2.734 3.434-3.179.7-.189 2.012-.143 2.713.095zm-2.271 1.54c-1.137.274-2.103 1.263-2.34 2.396-.464 2.216 1.52 4.186 3.752 3.724 1.183-.245 2.189-1.243 2.435-2.416.472-2.255-1.595-4.245-3.847-3.703z" fill="#F5F5F5"/></svg>