<svg width="213" height="24" fill="none" xmlns="http://www.w3.org/2000/svg"><path d="M4.207 16.803c.096.89.542 1.597 1.34 2.122.777.526 1.78.789 3.01.789 1.134 0 2.06-.263 2.78-.789.721-.515 1.081-1.187 1.081-2.016 0-.698-.278-1.264-.835-1.698-.558-.435-1.475-.794-2.752-1.077l-2.708-.606C2.358 12.698.475 10.617.475 7.28c0-2.062.726-3.72 2.176-4.973C4.1 1.065 6.027.443 8.428.443c2.285 0 4.168.612 5.647 1.835 1.47 1.223 2.238 2.81 2.305 4.76h-4.091a2.978 2.978 0 00-1.196-2.092c-.71-.525-1.59-.788-2.637-.788-1.094 0-1.968.248-2.621.743-.663.495-.995 1.157-.995 1.986 0 .677.27 1.223.807 1.637.528.415 1.402.759 2.622 1.031l2.507.561c2.084.465 3.601 1.193 4.552 2.184.951.99 1.426 2.334 1.426 4.033 0 2.203-.754 3.942-2.261 5.215-1.499 1.264-3.554 1.895-6.166 1.895-2.478 0-4.466-.596-5.964-1.789C.864 20.462.077 18.844 0 16.803h4.207zm28.452.864h-7.304l-1.6 5.215h-4.364l7.217-21.878h5.114l7.218 21.878h-4.71l-1.571-5.215zm-6.368-3.533h5.446l-2.579-8.581h-.26l-2.607 8.581zm19.463 2.669c.096.89.543 1.597 1.34 2.122.778.526 1.781.789 3.01.789 1.134 0 2.06-.263 2.781-.789.72-.515 1.08-1.187 1.08-2.016 0-.698-.278-1.264-.835-1.698-.557-.435-1.474-.794-2.752-1.077l-2.708-.606c-3.765-.83-5.647-2.911-5.647-6.247 0-2.062.725-3.72 2.175-4.973 1.45-1.243 3.376-1.865 5.777-1.865 2.286 0 4.168.612 5.647 1.835 1.47 1.223 2.238 2.81 2.305 4.76h-4.091a2.977 2.977 0 00-1.196-2.092c-.71-.525-1.59-.788-2.636-.788-1.095 0-1.969.248-2.622.743-.663.495-.994 1.157-.994 1.986 0 .677.269 1.223.807 1.637.528.415 1.402.759 2.622 1.031l2.506.561c2.084.465 3.602 1.193 4.553 2.184.95.99 1.426 2.334 1.426 4.033 0 2.203-.754 3.942-2.262 5.215-1.498 1.264-3.553 1.895-6.166 1.895-2.478 0-4.466-.596-5.964-1.789-1.498-1.192-2.286-2.81-2.363-4.851h4.207zm30.383 6.079V13.74h-9.364v9.142h-4.351V1.004h4.35v8.824h9.365V1.004h4.35v21.878h-4.35zm21.177-5.215H90.01l-1.6 5.215h-4.364l7.217-21.878h5.114l7.218 21.878h-4.711l-1.57-5.215zm-6.368-3.533h5.446l-2.579-8.581h-.26l-2.607 8.581zm28.233 8.721V.987h4.35v21.868h-4.35zm8.816-3.092L138.453 5.17v-.272H128.24V.987h15.514v3.076l-10.429 14.61v.272h10.717v3.91h-16.047v-3.092zm62.98 3.137V1.032h5.131l5.752 14.7h.259l5.766-14.7H213V22.9h-4.036V8.276h-.231l-5.29 13.366h-2.897l-5.305-13.366h-.23V22.9h-4.036zm-15.481-4.224c2.05 0 3.694-.591 4.932-1.773 1.264-1.22 1.897-2.892 1.897-5.017 0-2.138-.633-3.817-1.897-5.036-1.238-1.182-2.882-1.773-4.932-1.773h-26.948V.852h27.347c3.168 0 5.718.987 7.648 2.96 1.983 2.013 2.975 4.704 2.975 8.074s-.992 6.06-2.975 8.072c-1.93 1.962-4.48 2.943-7.648 2.943h-27.347v-4.225h26.948z" fill="#F5F5F5"/></svg>