<svg width="199" height="158" fill="none" xmlns="http://www.w3.org/2000/svg"><path fill-rule="evenodd" clip-rule="evenodd" d="M154.546.022c-.664-.11-1.15.18-2.128 1.268-.828.921-1.484 1.923-4.515 6.892-3.704 6.072-4.704 7.93-7.68 14.268-.307.655-.73 1.532-.94 1.95-.431.86-2.149 5.019-2.214 5.36-.023.122-.269.769-.547 1.436-.492 1.18-1.285 3.529-1.36 4.028a3.488 3.488 0 01-.227.673c-.379.846-.78 2.303-1.573 5.712l-.938 4.028c-.327 1.4-.588 2.806-.541 2.918.027.068-.022.525-.111 1.015a30.863 30.863 0 00-.277 2.097c-.064.663-.166 1.323-.228 1.465a.805.805 0 00.001.538c.123.302.134 1.204.025 2.06-.038.3-.007.582.069.629.075.046.104.125.062.174-.169.203-.236.791-.089.791.087 0 .066.07-.045.155-.113.085-.135.197-.051.249.084.051.067.136-.037.188-.131.066-.098.112.107.15.226.043.359.347.555 1.271.274 1.287.585 1.651 1.444 1.69.211.01.491.083.622.164.372.23 1.329-.108 1.969-.694.604-.553 1.31-1.672 2.653-4.205.421-.794.953-1.776 1.182-2.18.522-.926 2.115-4.1 2.807-5.595.288-.622.64-1.32.783-1.551.143-.231.269-.556.281-.721.011-.166.442-1.132.957-2.147.515-1.016 1.127-2.346 1.359-2.955.497-1.3.766-1.775.878-1.551.044.089.008.28-.081.424-.09.144-.171.434-.182.645-.011.21-.045.448-.076.528-.259.661-.411 1.441-.306 1.578.069.09.02.37-.109.62-.13.25-.208.604-.175.786.034.182.032.377-.004.435-.035.058-.009.443.058.857.067.413.143.981.169 1.261.069.749.438 2.264.589 2.416.072.072.195.444.274.825.14.68.159.701.929 1.027a79.39 79.39 0 011.475.643c.73.33 1.101.29 2.247-.235a8.96 8.96 0 011.101-.42c.259-.072.668-.296.91-.499.241-.203.542-.367.668-.365.325.006.85-.33 1.07-.686.103-.167.5-.487.883-.71.382-.223.682-.46.666-.526-.066-.281 2.383-2.402 3.099-2.684.123-.048.438.043.699.203.596.365 1.805.69 2.564.688 1.235-.001 4.648-1.206 4.992-1.761.055-.09.484-.13.952-.092.469.04 1.217.047 1.662.017.446-.03 1.202-.065 1.682-.076.479-.012.898-.064.93-.117.06-.097 1.894-.312 2.724-.318.498-.004 5.378-1.154 7.515-1.771.726-.21 2.482-.681 3.902-1.049 1.42-.367 2.839-.828 3.154-1.024.314-.196.7-.324.856-.285.156.039.497-.057.756-.213.482-.29 1.545-.743 1.937-.826.249-.052 1.237-.52 2.156-1.02.791-.43 1.098-.773 1.911-2.14.559-.938.636-1.157.512-1.446-.081-.187-.083-.605-.005-.93.138-.578.126-1.592-.02-1.68-.117-.07-2.878.581-4.372 1.03a204.673 204.673 0 01-8.38 2.329c-1.003.255-2.58.7-3.504.989-2.722.85-7.288 1.872-8.044 1.802l-.7-.065.116-.513c.301-1.338.594-2.582.639-2.718.177-.532.193-1.258.036-1.595-.112-.238-.107-.452.012-.543.108-.082.132-.189.054-.237-.078-.048-.252-.561-.386-1.14-.274-1.187-.472-1.375-1.84-1.748-1.74-.475-5.389-.15-7.105.633-.317.145-.949.42-1.404.61-.454.192-1.012.529-1.239.749-2.673 2.592-3.559 4.307-3.457 6.69.034.794-.13 1.09-.967 1.734-.35.27-.976.769-1.391 1.11-2.42 1.985-4.594 3.415-5.573 3.666l-.686.176.035-.462c.019-.254.101-.569.181-.7.081-.13.112-.386.069-.569-.044-.183-.048-.313-.01-.29.038.024.133-.251.211-.611.079-.36.211-.688.294-.73.084-.041.15-.256.147-.477-.002-.22.269-1.208.602-2.195.333-.986.637-2.018.674-2.293.038-.275.149-.694.248-.93.55-1.316.648-2.117.395-3.234-.279-1.237-.571-1.831-1.183-2.411a7.993 7.993 0 01-.736-.83c-.266-.356-.369-.423-.493-.321a.308.308 0 01-.332.022c-.278-.172-1.404.549-2.361 1.51-.682.684-1.196 1.395-2.26 3.122-2.279 3.7-4.766 8.136-5.687 10.147-.302.658-1.265 2.381-2.139 3.829-1.549 2.564-2.161 3.455-2.31 3.362-.04-.024-.051-.335-.023-.69a8.18 8.18 0 00.03-.897c-.019-.221.146-1.12.422-2.302.051-.217.144-.81.207-1.316.125-.993.609-3.362.919-4.491.105-.382.261-1.08.346-1.55.085-.47.258-1.02.384-1.224.126-.204.322-.78.435-1.282a10.48 10.48 0 01.536-1.64c.182-.4.359-.791.393-.87a1.04 1.04 0 00.063-.351c-.001-.115.158-.533.353-.927.195-.395.354-.807.354-.917 0-.236.929-2.354 1.884-4.296 4.075-8.284 4.213-8.534 7.384-13.37 2.7-4.118 3.209-4.836 5.367-7.552.781-.984.892-1.181.835-1.486-.035-.194 0-.456.078-.583.23-.373.409-2.613.253-3.173-.206-.74-1.021-1.517-1.711-1.631zm1.434 5.136a.076.076 0 00.025.106c.036.022.083.01.105-.026a.076.076 0 00-.025-.105.076.076 0 00-.105.025zm16.421 26.59c-.233.255-.875.008-.703-.269.066-.107.212-.179.324-.16.417.071.56.233.379.43zm-.689 1.924l-1.137 1.512c-.332.441-1.131 1.239-1.775 1.773-1.023.848-1.24.964-1.709.914-.361-.04-.638-.167-.846-.392a2.606 2.606 0 00-.609-.479c-.176-.085-.309-.316-.323-.558-.022-.376.024-.442.525-.746.302-.184.81-.42 1.128-.525.318-.104.617-.252.663-.327.105-.17 1.135-.739 1.648-.91.209-.07.696-.3 1.082-.508.791-.43 1.556-.667 1.754-.546.081.05-.072.353-.401.792zm-47.53 15.066a3.162 3.162 0 00-.42 1.072c-.065.405-.378 1.049-.998 2.052-.497.804-.882 1.553-.856 1.666.027.112-.166.614-.429 1.116-.262.502-.494 1.138-.515 1.413-.021.276-.154.61-.295.745-.395.377-.854 2.232-.721 2.91.127.643-.011 1.524-.245 1.58-.357.084-1.926-.298-2.386-.581-.443-.273-.443-.276-.05-.708.588-.646 2.966-4.291 3.413-5.23.255-.537.35-.94.275-1.173-.07-.218.018-.642.231-1.105.189-.413.312-.816.272-.894-.039-.078.008-.27.104-.426.238-.384-.378-2.71-.783-2.96-.179-.11-.308-.374-.316-.645-.01-.397-.108-.518-.729-.9-.394-.243-.753-.383-.798-.311-.044.072-.169.076-.277.01-.108-.067-.233-.062-.277.01-.044.072-.16.082-.257.022-.097-.06-.355-.056-.575.007-.219.064-.474.07-.566.013-.091-.057-.288.005-.437.137-.148.132-.734.36-1.302.507-.987.256-1.968.632-3.116 1.196-.292.143-.576.232-.633.197-.056-.035-.199.02-.317.12a55.25 55.25 0 01-1.082.868c-2.149 1.694-3.397 4.004-3.662 6.78-.101 1.055.107 2.473.427 2.916.138.191.261.591.272.888.012.298.109.633.217.745a.38.38 0 01.053.435c-.201.325-2.934 2.328-4.81 3.525-1.55.99-1.637 1.021-4.047 1.48-1.354.26-2.553.557-2.664.662-.286.272-.804-.106-.839-.612-.016-.23.031-.605.105-.832.144-.448-.052-3.31-.27-3.959-.075-.218-.31-.587-.526-.82a2.771 2.771 0 01-.538-.956c-.082-.293-.172-.495-.201-.448-.029.046-.08-.03-.113-.169-.072-.307-.585-.646-.807-.535-.093.047-.21-.1-.278-.352-.066-.238-.182-.47-.26-.516-.383-.23-.852-.266-1.22-.094-.336.157-.432.288-.538.73-.153.643-.394.817-.612.443-.288-.495-2.876.384-5.467 1.856-1.006.571-2.418 1.802-2.866 2.498-.178.277-.444.592-.59.7-.165.122-.282.375-.306.661-.021.255-.2.724-.397 1.043-.538.87-.717 1.463-.513 1.7.235.272-.052 2.086-.384 2.43-.045.046-.286.67-.535 1.387-.642 1.846-.821 3.361-.58 4.895.04.259.474 1.12.964 1.915.806 1.31.986 1.51 1.923 2.153.667.456 1.167.712 1.407.719.206.006.761.027 1.235.047 1.516.065 2.034-.11 3.656-1.227.837-.577 1.536-1.106 1.554-1.175.017-.069.173-.158.345-.2.172-.04.483-.27.691-.512a5.27 5.27 0 01.82-.743c.28-.192.788-.844 1.38-1.768 1.006-1.57 1.406-1.989 1.717-1.797.108.067.382.012.609-.122.624-.368 3.438-.839 4.506-.754.633.05 1.045.169 1.246.359.165.156.419.282.564.28.29-.006 1.718-.686 2.45-1.167.254-.167.523-.265.598-.219.076.047.137.009.137-.083 0-.262 1-1.206 1.762-1.663.379-.228.749-.51.821-.627.072-.117.564-.534 1.094-.926a51.332 51.332 0 001.897-1.49c1.507-1.256 2.344-1.863 2.566-1.863.114 0 .404.159.643.354.263.213.638.368.944.389.279.02.538.098.577.174.077.154 1.32.597 2.189.781.308.065 1.151.345 1.875.622.723.277 1.598.558 1.942.625.345.066 1.054.264 1.576.44.522.175 1.579.39 2.348.476 1.455.163 1.942.037 2.629-.68.289-.301.309-.4.124-.615-.185-.214-.164-.317.132-.64.378-.416.587-.995.401-1.11-.063-.039-.209-.42-.324-.846-.114-.426-.333-.934-.486-1.13-.153-.195-.218-.384-.146-.42.072-.036-.402-.354-1.054-.708-2.319-1.257-2.692-1.51-2.808-1.912a1.622 1.622 0 00-.386-.63c-.327-.3-.391-.77-.182-1.339.085-.23.047-.713-.087-1.088-.205-.579-.187-.81.126-1.627.201-.524.426-1.26.5-1.637.304-1.549.687-2.944 1.069-3.9.224-.558.396-1.102.384-1.21-.012-.107.08-.416.206-.686l.227-.49-.327.48zm32.701 26.25c-.307-.063-.974.202-2.436.969-1.107.58-2.257 1.229-2.557 1.441-.3.213-1.092.728-1.761 1.145-.669.417-1.261.825-1.314.906-.054.082-.977.704-2.051 1.384-1.811 1.145-2.45 1.58-4.037 2.75-1.009.744-3.523 2.421-3.764 2.512-.382.143-.456-.024-.249-.56.273-.706.164-1.852-.294-3.1-.197-.536-.311-.65-.978-.97-.415-.2-.847-.364-.96-.364-.356 0-1.452.841-1.877 1.44-.796 1.124-2.02 2.58-2.633 3.135-.341.309-.877.851-1.19 1.205a56.135 56.135 0 01-1.619 1.71 88.264 88.264 0 00-1.529 1.588c-1.397 1.518-4.133 4.01-5.381 4.902-.299.213-.973.703-1.498 1.089-.525.385-1.003.637-1.062.559-.114-.15.025-.357 1.486-2.22.831-1.06 1.713-2.242 2.03-2.722.253-.383.478-1.15.36-1.223-.067-.041-.063-.14.01-.22.234-.254.302-.847.131-1.14-.098-.168-.085-.348.03-.436.227-.172.192-.733-.046-.733-.088 0-.12-.065-.07-.146.05-.08.007-.146-.094-.145-.102 0-.271-.263-.377-.583-.202-.614-.442-.857-.711-.722-.09.045-.352-.07-.584-.257-.368-.294-.468-.303-.779-.073-.58.43-1.139.978-1.775 1.738a369.71 369.71 0 01-1.352 1.606c-.415.489-1.024 1.21-1.354 1.603-.33.393-.938 1.075-1.352 1.516-.413.44-1.061 1.138-1.44 1.55a29.931 29.931 0 01-1.456 1.451 45.855 45.855 0 00-1.587 1.551c-.451.467-1.063 1.023-1.359 1.236-.295.213-.55.438-.565.499-.015.061-.159.078-.32.038-.371-.093-1.204.47-1.02.689.191.229-.033.471-.514.555-.319.056-.386.034-.251-.081.102-.087.135-.28.074-.431-.06-.151-.035-.42.058-.597.354-.68.366-1.383.039-2.181-.624-1.522-.823-1.757-1.756-2.079-1.1-.379-1.771-.073-2.854 1.301-1.042 1.322-1.96 2.328-2.517 2.757-.257.198-.79.73-1.183 1.183-.6.69-2.293 2.434-4.003 4.126-1.54 1.524-4.753 4.339-6.232 5.462-1.094.83-2.983 1.654-2.148.937.134-.115.557-.714.941-1.331.526-.844.681-1.209.632-1.479-.037-.197.002-.374.087-.394.084-.02.112-.118.063-.217-.092-.186.307-2.053.509-2.379.16-.259-.166-1.562-.404-1.613-.11-.024-.15-.124-.089-.222.064-.103-.11-.415-.407-.73-.285-.303-.578-.65-.653-.772-.073-.121-.48-.411-.904-.643-.67-.365-.86-.398-1.45-.246-.964.249-2.364.943-3.296 1.634-.657.488-.95.835-1.654 1.961-.884 1.412-2.18 4.469-2.108 4.976.02.142-.012.269-.07.283-.06.014-.083-.226-.054-.534.03-.307.019-.505-.024-.439s-.056-.279-.028-.766c.077-1.329.026-2.563-.107-2.645-.066-.04-.19-.395-.277-.789-.154-.693-.195-.741-1.271-1.46-1.045-.699-1.18-.75-2.24-.841-1.327-.115-2.01.012-3.964.736-.796.295-1.71.625-2.033.734a4.372 4.372 0 00-1 .504c-.395.292-.437.286-1.003-.142-.55-.416-.627-.431-1.14-.215l-.55.232.167.637c.091.351.142.677.113.724-.03.047-.742.521-1.585 1.054-4.302 2.72-6.69 4.58-7.122 5.549-.333.745-.343 1.367-.03 1.835.126.187.2.46.162.606-.043.172.078.36.345.535.227.148.422.393.433.544a.9.9 0 00.246.489c.233.224.212.259-.587.96-.406.357-.543.6-.836 1.492-.448 1.36-.452 1.593-.037 2.127.187.241.656.881 1.041 1.421.693.973.712.987 1.72 1.371 1.66.632 3.948.616 6.035-.041a62.742 62.742 0 011.627-.494c.239-.065.616-.183.838-.262.53-.189.768-.034.442.286-.14.138-.573.739-.963 1.336-.463.709-.859 1.167-1.137 1.318-.39.211-.422.264-.363.6.035.204-.12.76-.346 1.236-.346.733-.376.933-.194 1.296.118.236.27.75.335 1.143.098.576.242.816.755 1.256.349.299.823.619 1.054.711l.42.166-.558.701c-.306.386-.682.715-.834.731-.153.017-.315.091-.361.166-.046.074-.528.459-1.07.855-.544.396-1.06.838-1.15.981-.09.144-.356.375-.59.515-.236.14-.474.329-.531.421-.057.092-.206.148-.33.125-.125-.023-.437.139-.693.36-.707.612-4.398 2.842-5.959 3.601-.76.371-1.426.743-1.479.828-.052.085-.216.172-.362.192-.205.029-.286-.064-.344-.394-.042-.237-.248-.861-.457-1.385-.53-1.327-1.158-4.305-.973-4.606.026-.041.021-.598-.01-1.237-.03-.639-.038-1.355-.017-1.59.022-.235.04-.849.038-1.366-.002-2.421-.467-1.973-.21-1.703.185.194-1.322-2.2.653-2.094.973-.456-.388.674-1.456.927-.233.055 1.244-1.557 1.22-1.572-.024-.015.014-.682.084-1.483s.073-1.49.006-1.532c-.068-.041-.08-.439-.026-.882.053-.444.068-1.055.034-1.358-.034-.303.023-.69.129-.86.105-.17.136-.343.07-.384-.16-.098-.094-2.032.07-2.071.069-.016.08-.147.025-.29-.106-.276.17-3.934.314-4.169.047-.076.09-.606.097-1.178.007-.573.077-1.073.156-1.113.08-.039.09-.106.023-.147-.067-.041-.013-.336.12-.655s.175-.668.094-.774c-.082-.107-.066-.328.035-.491.101-.163.14-.428.085-.589-.054-.161-.02-.353.077-.426.097-.074.134-.161.083-.193-.051-.033-.049-.377.006-.764.055-.388.105-.904.112-1.148.008-.244.046-.687.085-.986.04-.298.01-.58-.065-.627-.075-.046-.073-.116.006-.156.171-.085.083-1.053-.107-1.17-.073-.045-.21-.292-.304-.549-.103-.28-.37-.588-.67-.773-.273-.169-.498-.388-.498-.487 0-.1-.116-.252-.257-.34-.248-.152-.24-.169.223-.449.265-.16.535-.298.601-.307.066-.009.242-.08.39-.16.148-.078 1.26-.562 2.472-1.074 2.06-.872 2.838-1.14 5.076-1.75.49-.133.883-.272.875-.308-.009-.035.455-.238 1.03-.45.923-.338 1.047-.427 1.046-.747-.002-.2-.048-.391-.103-.426-.197-.12.871-.754 1.919-1.139.583-.214 1.128-.5 1.212-.636.119-.192.097-.233-.101-.187-.14.033-.377-.015-.526-.107-.15-.092-.449-.157-.664-.144-.216.012-.409-.045-.428-.129-.02-.083-.055-.076-.078.015s-.4.265-.839.387c-.437.121-1.063.3-1.39.397-.326.097-.53.134-.452.082.96-.634 1.469-1.001 1.531-1.102.042-.067.225-.141.408-.165.226-.029.268-.01.133.06-.11.057-.14.14-.07.183.072.044.241-.015.377-.132s.28-.144.322-.062c.042.084.248-.131.472-.494.39-.63.39-.646-.001-.8-.42-.166-1.341-.011-1.724.29-.124.096-.302.132-.397.078-.168-.096-4.52 1.259-5.98 1.862-.41.17-.796.277-.858.24-.06-.038-.442.093-.847.29-.703.343-1.04.382-.865.1.045-.072.016-.171-.064-.22-.08-.05-.167.028-.194.172-.032.167-.515.458-1.337.805-1.283.541-1.289.542-1.736.156-.25-.215-.653-.42-.909-.461-.44-.071-.477-.04-.864.697-.223.425-.396.809-.385.854.041.175-1.877 1.132-2.843 1.417-1.393.41-1.537.463-1.958.719-.665.403-1.593.728-1.999.7-.227-.015-.539.123-.723.32-.178.19-.506.375-.73.41-.222.035-.46.154-.529.264-.068.11-.45.301-.85.426-1.755.546-2.12.682-2.762 1.03-.854.464-1.87.894-3.122 1.322-.537.183-1.239.508-1.56.721-.322.213-.679.387-.793.387-.113 0-.348.109-.52.241-.173.132-.4.188-.503.124-.21-.129-1.37.394-1.462.66-.032.093-.165.149-.295.125-.13-.025-.458.088-.726.25-.563.339-1.105.559-2.447.994-.526.17-1.172.44-1.436.599-.263.16-.921.464-1.463.677a44.474 44.474 0 00-2.854 1.225c-3.945 1.814-4.924 2.258-5.312 2.414-.244.097-.654.32-.91.493a6.442 6.442 0 01-1.136.565c-.368.136-1.151.521-1.74.854-.587.333-1.343.713-1.679.844-.708.277-1.616.723-2.135 1.05-.2.126-.858.463-1.465.749-.606.287-1.313.673-1.571.857-.258.185-.791.391-1.185.458-.763.129-1.085.442-.93.904.053.156.014.417-.087.58-.101.164-.117.385-.036.491.082.107.073.253-.02.324-.231.179.292 1.112.754 1.344.217.109.455.397.556.674.13.352.368.601.87.911l.693.427 1.833-.532c2.953-.856 3.484-.953 4.653-.847 1.473.134 2.69.181 3.897.15 1.54-.039 5.718.331 6.305.559.29.112.726.182.968.156.243-.027.716.064 1.051.201.335.137.695.242.8.234.31-.026 2.455.475 4.264.996.928.267 2.033.584 2.456.704.423.12 1.012.314 1.309.431.297.117.658.173.802.124.154-.052.366.017.51.165.137.14.872.548 1.634.906 1.837.863 6.573 3.675 7.738 4.594.51.402 1.215 1.032 1.568 1.4.352.368.865.807 1.14.977.7.43 1.763 1.754 1.878 2.335.052.268.127 1.102.166 1.854.039.753.211 2.004.383 2.781.172.777.248 1.445.169 1.484-.08.04-.053.178.058.307s.184.332.162.45c-.023.119.192.507.476.864.32.402.47.726.392.851-.188.301-2.668 1.488-3.69 1.765-.313.085-.587.184-.61.219-.021.035-.496.247-1.055.469-.559.223-1.629.678-2.378 1.011-1.545.688-3.693 1.521-4.883 1.894-.443.139-1.111.377-1.485.53-.375.152-1.06.378-1.525.501-.464.123-1.4.4-2.08.615-1.547.49-6.192 1.583-6.34 1.492-.06-.037-.466-.016-.902.047s-1.035.065-1.332.006a22.057 22.057 0 00-1.558-.213c-.56-.058-1.148-.16-1.305-.228-.33-.14-.498-.958-.343-1.657.14-.63-.173-1.33-.834-1.872-.527-.433-.584-.442-1.42-.227-.965.249-1.26.488-2.173 1.762-.632.883-1.325 2.712-1.084 2.861.062.038.036.127-.057.198-.19.144.94 1.97 1.39 2.248.148.091.387.319.531.507.438.57 2.68 1.907 3.633 2.166 1.163.317 4.475.605 5.231.455.34-.067.99-.131 1.444-.142 1.09-.026 7.096-1.537 7.278-1.832.03-.048.366-.165.748-.259.682-.169 1.87-.532 3.337-1.019.832-.277 2.356-.904 4.445-1.83.77-.341 1.524-.638 1.678-.659.154-.022.327-.116.385-.21.058-.094.345-.252.639-.352.293-.1.943-.397 1.444-.659.5-.263.954-.451 1.009-.417.054.033.318-.097.586-.289.268-.192.702-.374.964-.404.261-.03.81-.277 1.218-.549.408-.272 1.044-.59 1.413-.706.705-.221 2.597-1.186 2.72-1.387.04-.064.6-.344 1.244-.621a23.67 23.67 0 002.078-1.031c.5-.29 1.247-.725 1.66-.967.415-.241.808-.446.875-.455.187-.024 2.807-1.692 3.46-2.203.32-.25.899-.624 1.288-.831.39-.208.775-.458.858-.556.082-.098.57-.528 1.085-.956 1.48-1.232 1.969-1.785 3.216-3.636.951-1.411 1.17-1.818 1.167-2.171-.002-.239.157-.783.354-1.208.56-1.216.784-2.045.585-2.168-.1-.061-.145-.169-.102-.239.112-.18-.583-1.281-.838-1.33-.164-.032-.04-.333.549-1.334.418-.712 1.074-1.872 1.458-2.579a370.94 370.94 0 011.482-2.699c.43-.778.94-1.823 1.133-2.323.326-.848.399-.942 1.068-1.38.395-.258.847-.488 1.005-.51.158-.023.566-.236.906-.475 1.083-.761 1.455-.751 2.172.059.779.879 1.148 1.212 1.25 1.127.06-.049.453.041.872.202.988.377 2.21.298 3.885-.249 1.267-.415 1.348-.418 1.81-.079.275.202.52.298.568.221.046-.073.284-.174.53-.223l.447-.09-.143-.514c-.216-.781-.074-1.066.91-1.832a42.709 42.709 0 001.47-1.196c.314-.274.651-.498.748-.498.097 0 .243-.108.324-.239.198-.321 1.386-1.324 1.49-1.259.046.028.24-.181.431-.464.191-.283.522-.668.737-.856.879-.769 1.35-1.273 1.658-1.771.179-.289.515-.639.747-.778.232-.139.61-.474.839-.744l.416-.492.516.672c.672.875 1.393 1.211 2.843 1.326.884.069 1.343-.002 2.081-.321.974-.421 2.631-1.415 3.416-2.049a65.707 65.707 0 002.723-2.297 20.943 20.943 0 011.622-1.306c.399-.278.746-.532.77-.564.025-.033.08-.116.123-.186.043-.069.247-.115.454-.103.313.019.383.087.422.413.054.44.407.837 1.398 1.567.626.462.759.499 1.613.441.901-.061 2.242-.537 2.447-.868.055-.09.209-.143.342-.118.278.053 1.8-.88 2.597-1.591a6.317 6.317 0 011.1-.767c.307-.156.672-.468.811-.692a3.23 3.23 0 01.706-.74c.248-.182.747-.718 1.107-1.19.361-.474.846-.98 1.08-1.124.233-.145.544-.457.69-.693.146-.237.347-.43.446-.43.1 0 .286-.17.414-.377.129-.208.322-.377.43-.377.108 0 .236-.128.283-.283.048-.155.346-.548.663-.874l.576-.592.696.378c.406.22 1.052.409 1.552.453.47.04.9.102.955.135.219.135 1.438-.085 2.001-.362l1.086-.535a7.907 7.907 0 001.072-.694c.322-.25.999-.767 1.504-1.15a15.913 15.913 0 001.57-1.381c.358-.376.835-.813 1.061-.973l.824-.58c.228-.16.897-.683 1.485-1.162 2.385-1.942 2.906-2.344 3.462-2.671.319-.188.768-.49.998-.672.229-.182.469-.298.532-.26.064.04.237-.126.386-.367.375-.606 1.023-1.117 1.631-1.286.282-.079.902-.428 1.377-.777.915-.673 1.452-.905 1.716-.742.089.054.002.712-.193 1.46-.776 2.99-.927 3.756-.914 4.644.007.508.086.942.176.963.089.02.217.235.283.476.072.265.3.549.575.718.402.247.508.238.904-.075.247-.196.488-.332.535-.303.048.03.149-.111.226-.313.077-.201.365-.584.639-.85.606-.588 1.427-2.306 1.874-3.918.165-.595.4-1.346.522-1.668.99-2.612 1.08-3.362.615-5.146-.543-2.084-1.126-2.908-2.212-3.13zM116.89 52.096c-1.041 1.452-2.758 3.532-3.356 4.066-.316.281-.838.755-1.162 1.052-.675.62-1.019.575-1.48-.192l-.282-.47.731-1.025c.995-1.395 1.6-2.032 2.868-3.02 1.419-1.104 2.634-1.658 3.061-1.395.199.121.151.244-.38.984zM68.8 38.868c-.548.003-1.287-.01-1.641-.028-.354-.018-.742.05-.862.152s-.514.199-.877.215c-.636.028-.998.127-2.274.62-.326.127-.954.353-1.394.502a37.22 37.22 0 00-1.61.596c-.446.18-.862.295-.926.255-.064-.039-.168.014-.233.118-.104.169-1.801.911-2.968 1.3-.237.078-.553.25-.703.38-.15.13-.67.47-1.156.755-.487.285-1.188.702-1.56.927-.37.224-.791.421-.934.437-.144.016-.475.233-.736.482-.262.25-.609.473-.771.495-.163.023-.353.134-.422.246-.07.112-.44.463-.825.78-.385.315-.847.727-1.027.914-.18.187-.761.723-1.291 1.19-.826.73-1.092 1.071-1.854 2.38-1.536 2.635-2.029 4.54-1.592 6.153.376 1.392.99 2.986 1.277 3.313.146.166.352.504.457.751.253.59.915 1.351 1.997 2.296.484.423.971.885 1.083 1.026.265.335 3.324 1.953 5.29 2.8.85.365 1.61.748 1.688.849.077.101.401.19.72.196.483.01 1.906.412 2.906.82.13.054.449.091.71.084.262-.007.627.08.811.193.185.114.72.29 1.189.392.47.102.898.275.952.384.066.131.036.198-.09.198-.163 0-.889 1.006-.776 1.075.023.014.225.06.449.104.316.06.368.107.232.21-.096.073-.108.22-.026.326a.24.24 0 00.335.049c.104-.079.272-.092.374-.03.102.063.316-.028.477-.202.354-.384.287-1.014-.122-1.139-.194-.059-.23-.14-.116-.261.171-.184 1.794.153 2.342.486.322.196 1.59.55 2.417.677.442.067 2.127.8 2.066.898a28.49 28.49 0 01-.94.807c-1.42 1.192-5.753 3.797-8.36 5.026-2.199 1.036-3.005 1.454-3.385 1.755-.23.183-.465.304-.521.27-.056-.035-.383.11-.725.32-.343.212-1.026.543-1.518.736a24.57 24.57 0 00-2.002.934c-1.463.77-3.319 1.651-5.986 2.84-3.97 1.772-4.713 2.113-6.194 2.841-.807.397-1.953.91-2.546 1.141-1.384.539-3.456 1.463-3.966 1.77a4.49 4.49 0 01-.896.382c-.276.079-1.365.586-2.422 1.127-1.057.54-2.14 1.052-2.407 1.136-.268.083-.836.364-1.263.624-.748.455-.778.493-.818 1.017-.023.3-.127.742-.231.984-.265.613-.085.955.785 1.49.727.448.745.475.52.784-.223.308-.202.34.52.818l.753.497 1.317-.814c1.22-.754 2.655-1.546 3.62-1.998.444-.207.754-.358 2.94-1.433a61.52 61.52 0 012.694-1.24c.656-.276 1.392-.621 1.636-.767a5.14 5.14 0 01.904-.413c1.002-.319 4.279-1.94 4.44-2.195.102-.164.413-.277.782-.285.337-.008.985-.219 1.44-.47.454-.25 1.126-.537 1.494-.637.367-.1 1.255-.447 1.974-.77.719-.322 1.415-.585 1.547-.583a.47.47 0 00.365-.2c.167-.27 1.952-1.17 2.69-1.355.323-.081.636-.223.693-.316.057-.093.834-.46 1.725-.817.892-.356 2.051-.884 2.578-1.173.526-.288 1.206-.593 1.51-.676.303-.084 1.04-.456 1.634-.828.596-.372 1.824-1.015 2.73-1.428.905-.414 1.69-.823 1.744-.91.053-.088.372-.27.706-.404a4.359 4.359 0 001.085-.676c.262-.237.671-.507.91-.599.777-.3 2.465-1.894 3.135-2.962.691-1.102 1.117-2.692.954-3.565a4.712 4.712 0 01-.048-1.053c.032-.362-.114-.797-.435-1.303-.415-.654-.696-.902-2.01-1.775-1.19-.79-1.595-1-1.824-.946-.162.038-.433-.016-.602-.12-.169-.104-.739-.323-1.267-.487a85.487 85.487 0 01-1.109-.35 5.653 5.653 0 00-.61-.127c-.255-.042-.532-.12-.617-.173-.178-.113-2.392-.653-3.27-.799-.328-.054-.697-.215-.819-.357s-.257-.2-.3-.13c-.122.197-4.065-.876-4.123-1.12-.016-.068-.397-.204-.847-.302-.952-.208-2.494-.763-3.274-1.178-.299-.16-.91-.421-1.357-.582-1.105-.397-3.005-1.599-3.898-2.466-1.888-1.835-2.002-2.017-1.946-3.12.037-.732.648-2.128 1.117-2.555.227-.206.566-.623.753-.925.196-.318.953-1.033 1.793-1.696.8-.63 1.973-1.557 2.608-2.06 1.215-.963 1.995-1.481 2.467-1.64.156-.054.43-.25.61-.437.18-.188.714-.509 1.187-.714 1.062-.46 3.016-1.327 3.822-1.696.331-.15 1.127-.438 1.77-.639.642-.2 1.388-.497 1.657-.66.27-.162.883-.393 1.364-.514.48-.12 1.148-.353 1.484-.517.621-.302 1.015-.71.686-.71-.28 0-.103-.179.289-.293.343-.099.503-.492.2-.491-.083 0-.043-.103.089-.229.131-.125.516-.234.853-.242.717-.015 1.051-.376.605-.651a.716.716 0 00-.621-.022c-.333.165-.912-.055-.767-.29.044-.07.243-.13.443-.131.399-.003.746-.406.48-.558-.091-.053-.615-.094-1.163-.09zm-.75 2.968a.077.077 0 11-.13-.08.077.077 0 01.13.08zM92.208 63.62c-.13.77-1.716 3.917-2.011 3.988-.96.23-3.464.089-3.971-.224-.8-.493-.632-1.163.493-1.953.351-.247.686-.526.745-.62.125-.203 2.625-1.613 2.807-1.583.069.011.503-.025.966-.08.463-.056.888-.073.944-.04.056.034.068.264.027.512zm-7.42 9.876c-.768.588-1.569.477-1.286-.18.106-.245.284-.29.858-.218.398.05.738.099.755.107.018.009-.13.14-.327.29zm-1.4.537a.077.077 0 11-.13-.08.077.077 0 01.13.08zm-21.427-2.18a.077.077 0 11-.131-.08.077.077 0 01.132.08zm-1.55 21.886c-.126.12-.26.154-.3.075-.115-.228.143-.53.345-.406.12.073.104.19-.045.331zm-2.62.645a.077.077 0 11-.13-.08.077.077 0 01.13.08zm15.49 13.468c-.085.072-.318.11-.52.084-.2-.026-.411.028-.467.118-.056.091-.154.133-.218.094-.064-.039-.233.057-.377.214-.145.158-.187.285-.095.285.092-.001.123.143.07.318-.083.269.001.381.533.708.347.214.631.458.631.542 0 .397-1.06 3.082-1.314 3.329-.158.155-.743.456-1.298.67a20.93 20.93 0 00-1.602.693c-.325.166-.712.274-.86.238-.305-.073-1.36.389-1.536.673-.064.104-.35.205-.635.224-.285.019-.939.187-1.452.375-.514.187-1.005.299-1.092.25-.087-.05-.531.038-.988.195-.456.157-.957.267-1.112.244-.155-.022-.829-.364-1.497-.759l-1.215-.718.41-.246c.226-.136.657-.503.958-.817.301-.313.827-.695 1.169-.848a7.61 7.61 0 001.168-.685c.843-.627 3.032-1.902 3.492-2.034.228-.066.481-.23.565-.365.15-.243.31-.329 2.39-1.286.58-.266 1.086-.535 1.124-.597.086-.138 1.268-.587 2.57-.974.903-.269 1.552-.229 1.198.075zM48.943 94.565c-.077.018-.092-.045-.033-.141.06-.096.123-.111.141-.034a.146.146 0 01-.108.175zm15.353 9.647c-.215.051-.201-.217.017-.326.165-.083.196-.064.158.096-.026.11-.105.213-.175.23zm-16.69-.835c-.056.509-.098 1.2-.093 1.537a3.93 3.93 0 01-.181 1.152c-.31.87-.528 2.103-.487 2.738.022.324-.06.749-.18.943-.12.194-.182.672-.138 1.061.044.389-.003 1.793-.105 3.121s-.15 2.598-.107 2.823c.043.226.03.998-.028 1.717-.059.718-.08 1.543-.047 1.833.033.29.002.77-.07 1.068-.07.297-.077.573-.013.612.064.039.081.436.04.882a49.077 49.077 0 00-.117 2.537c-.021.95-.081 1.795-.132 1.877-.051.083-.078.385-.059.672.019.288-.002.711-.046.941l-.08.418-.775-.563c-3.531-2.565-9.843-6.388-10.742-6.506-.446-.059-1.062-.341-2.747-1.257-.711-.387-1.163-.552-1.326-.486-.136.055-.506 0-.823-.121-.316-.122-1.63-.471-2.919-.777-1.289-.305-2.51-.657-2.712-.782-.338-.208-1.669-.519-2.437-.568-.177-.012-.956-.179-1.733-.372-.776-.193-1.56-.324-1.744-.292-.183.032-.807-.017-1.387-.108-.58-.092-1.226-.165-1.436-.163-.667.006-1.092-.162-.959-.378.066-.107.178-.185.25-.174.185.028 1.306-.588 1.428-.784.056-.092.42-.289.808-.44.39-.151.784-.394.878-.542.093-.147.443-.326.776-.397.333-.072.97-.377 1.415-.678.446-.302.91-.53 1.032-.507.122.023.673-.195 1.225-.483 1.461-.765 2.258-1.138 2.803-1.313.265-.085.82-.339 1.234-.565.414-.225.97-.446 1.237-.49.266-.043.535-.163.599-.266.063-.102.418-.296.788-.43.793-.288 4.602-2.028 5.57-2.545a9.802 9.802 0 011.403-.588c.401-.126.771-.297.823-.381.052-.083.203-.131.337-.106.133.026.277-.009.318-.076.083-.134 1.83-1.009 2.563-1.284.25-.094.579-.278.73-.409.15-.13.322-.207.381-.171.109.067 2.76-.942 2.848-1.084.027-.043.331-.186.678-.319a10.35 10.35 0 001.217-.58 8.097 8.097 0 011.355-.576l.768-.237.112.471c.061.259.065.887.008 1.395zm-8.733 23.296c1.022.876.413.738-1.314-.298-.943-.565-1.894-1.084-2.115-1.152-.43-.134-.552-.487-.17-.493.502-.008 2.718 1.189 3.599 1.943zm2.727 2c.674.569.407.654-.33.104a46.427 46.427 0 00-1.06-.771c-.363-.25-.384-.444-.04-.372.191.04.599.336 1.43 1.039zm-8.445-4.676c-.08.13-.251.116-.505-.041a2.784 2.784 0 00-.77-.31c-.21-.04-.757-.25-1.213-.467l-.83-.393.475-.078c.338-.056.673.037 1.156.322.375.221.858.445 1.073.498.607.15.746.256.614.469zm1.23.642c-.039.062-.31-.035-.605-.217-.344-.211-.448-.33-.291-.332.319-.004.986.404.896.549zm-5.274-2.14c-.09.045-.29.001-.448-.098-.232-.145-.234-.179-.01-.184.36-.008.664.179.458.282zm-.852-.302c-.158.132-1.3-.254-1.608-.543-.192-.18 1.13.062 1.515.278.14.077.18.193.093.265zm-1.878-.844c0 .251-1.136.116-2.353-.281-.58-.188-1.295-.326-1.59-.306-.338.024-.556-.037-.586-.162-.03-.126.045-.208.2-.223.477-.044 2.944.487 3.309.711.202.125.496.184.652.131.334-.112.368-.101.368.13zm-.237-.049a.077.077 0 00.025.106.077.077 0 00.106-.025.077.077 0 00-.025-.106.077.077 0 00-.106.025zm-4.687-.898c-.066.107-1.892-.174-2.145-.33-.126-.078-.364-.096-.53-.041-.175.06-.41 0-.568-.145-.148-.136-.333-.215-.41-.177-.077.039-.208.028-.291-.023-.321-.198.488-.212 1.42-.025.53.107 1.22.241 1.533.299.582.107 1.065.323.991.442zm-4.375-.71c-.108.082-.351.052-.54-.068-.33-.209-.329-.218.03-.253.484-.046.762.129.51.321zm-1.24-.148c-.04.065-.171.015-.292-.111-.12-.127-.206-.253-.188-.28.017-.028.148.022.292.111s.23.214.189.28zm-1.599-.337a.078.078 0 01-.106.026.077.077 0 01-.025-.106.077.077 0 01.106-.025.076.076 0 01.025.105zm-1.892 0a.193.193 0 01-.259-.08c-.054-.108 0-.167.156-.168.29 0 .344.128.103.248z" fill="#F5F5F5"/></svg>