<svg class="preloader__img" width="1680" height="180" fill="none" xmlns="http://www.w3.org/2000/svg"><path d="M33.179 128.029c.757 6.961 4.28 12.498 10.567 16.612 6.136 4.113 14.052 6.17 23.748 6.17 8.939 0 16.249-2.057 21.93-6.17 5.681-4.035 8.522-9.295 8.522-15.781 0-5.459-2.197-9.888-6.59-13.29-4.394-3.401-11.628-6.209-21.703-8.424l-21.362-4.747C18.597 95.913 3.75 79.618 3.75 53.513c0-16.137 5.719-29.11 17.157-38.918C32.346 4.865 47.534 0 66.471 0 84.5 0 99.347 4.786 111.013 14.357c11.59 9.572 17.65 21.991 18.18 37.258h-32.27c-.833-6.803-3.977-12.261-9.43-16.374-5.606-4.114-12.538-6.17-20.794-6.17-8.636 0-15.53 1.938-20.68 5.814-5.227 3.876-7.84 9.057-7.84 15.544 0 5.3 2.12 9.571 6.362 12.814 4.167 3.244 11.06 5.933 20.68 8.069l19.771 4.39c16.438 3.639 28.407 9.334 35.906 17.086 7.5 7.753 11.249 18.273 11.249 31.563 0 17.244-5.946 30.85-17.839 40.817C102.491 175.056 86.28 180 65.676 180c-19.544 0-35.224-4.667-47.041-14.001C6.818 156.664.606 144.008 0 128.029h33.179zm224.412 6.763h-57.609L187.37 175.61h-34.429L209.868 4.39h40.337l56.927 171.22h-37.156l-12.385-40.818zm-50.223-27.646h42.951l-20.34-67.16h-2.045l-20.566 67.16zm153.509 20.883c.757 6.961 4.28 12.498 10.567 16.612 6.136 4.113 14.052 6.17 23.748 6.17 8.939 0 16.249-2.057 21.93-6.17 5.681-4.035 8.522-9.295 8.522-15.781 0-5.459-2.197-9.888-6.591-13.29-4.393-3.401-11.627-6.209-21.702-8.424l-21.362-4.747c-29.694-6.486-44.541-22.781-44.541-48.886 0-16.137 5.719-29.11 17.157-38.918C360.044 4.865 375.232 0 394.169 0c18.029 0 32.876 4.786 44.542 14.357 11.59 9.572 17.65 21.991 18.18 37.258h-32.27c-.833-6.803-3.977-12.261-9.431-16.374-5.605-4.114-12.537-6.17-20.793-6.17-8.636 0-15.529 1.938-20.68 5.814-5.227 3.876-7.841 9.057-7.841 15.544 0 5.3 2.121 9.571 6.363 12.814 4.167 3.244 11.06 5.933 20.68 8.069l19.771 4.39c16.438 3.639 28.407 9.334 35.906 17.086 7.5 7.753 11.249 18.273 11.249 31.563 0 17.244-5.946 30.85-17.839 40.817C430.189 175.056 413.978 180 393.374 180c-19.544 0-35.224-4.667-47.041-14.001-11.817-9.335-18.029-21.991-18.635-37.97h33.179zm239.638 47.581v-71.549h-73.858v71.549h-34.315V4.39h34.315v69.058h73.858V4.39h34.315v171.22h-34.315zm167.03-40.818h-57.608l-12.613 40.818h-34.429L719.822 4.39h40.337l56.927 171.22H779.93l-12.385-40.818zm-50.223-27.646h42.951l-20.339-67.16h-2.045l-20.567 67.16zm222.682 68.248V4.252h34.312v171.142h-34.312zm69.536-24.195l82.48-114.213v-2.135h-80.55V4.252h122.36v24.076l-82.26 114.332v2.135h84.53v30.599h-126.56v-24.195zm496.74 24.549V4.606h40.47l45.37 115.044h2.04l45.48-115.044H1680v171.142h-31.83V61.298h-1.82l-41.73 104.606h-22.85l-41.84-104.606h-1.82v114.45h-31.83zm-122.1-33.06c16.17 0 29.13-4.625 38.9-13.875 9.97-9.546 14.96-22.634 14.96-39.265 0-16.73-4.99-29.867-14.96-39.413-9.77-9.25-22.73-13.875-38.9-13.875h-212.55V3.195h215.7c24.99 0 45.09 7.725 60.31 23.175 15.65 15.745 23.47 36.804 23.47 63.178 0 26.373-7.82 47.433-23.47 63.178-15.22 15.352-35.32 23.028-60.31 23.028h-215.7v-33.066h212.55z" fill="#F5F5F5"/></svg>