<svg width="32" height="32" fill="none" xmlns="http://www.w3.org/2000/svg"><path fill-rule="evenodd" clip-rule="evenodd" d="M14.904 1.018c-2.959.246-5.654 1.266-7.995 3.025-.726.545-2.01 1.79-2.592 2.513-1.73 2.149-2.812 4.65-3.21 7.416-.144 1.001-.143 3.023.002 4.046.397 2.797 1.556 5.437 3.311 7.538a15.122 15.122 0 005.02 3.93c1.846.89 3.502 1.327 5.596 1.478 3.68.264 7.448-.928 10.37-3.28.744-.599 1.985-1.875 2.544-2.618a15.044 15.044 0 002.175-14.136c-.472-1.33-1.274-2.808-2.177-4.013-.546-.728-1.786-2.002-2.541-2.61A14.97 14.97 0 0018.19 1.15c-.742-.111-2.63-.188-3.286-.133zm2.578 1.929a13.157 13.157 0 0110.972 8.903c1.607 4.83.302 10.085-3.384 13.619-4.67 4.477-11.77 4.896-17.001 1.004-.714-.532-2.027-1.843-2.563-2.56-2.627-3.519-3.35-7.946-1.975-12.08 1.595-4.795 5.872-8.276 10.916-8.886a14.564 14.564 0 013.035 0z" fill="#F5F5F5" stroke="#181818"/><path d="M16.194 10.235V10h-.643l-.55.235v8.482l.824.235.413-.407-.044-8.31z" fill="#F5F5F5"/><path d="M21.998 15.622l.002-.375-.232-.397-.364-.244L15 18.138l-.001.814.832.048 6.166-3.378z" fill="#F5F5F5"/></svg>