<svg width="32" height="32" fill="none" xmlns="http://www.w3.org/2000/svg"><path fill-rule="evenodd" clip-rule="evenodd" d="M14.904 1.018c-2.959.246-5.654 1.266-7.995 3.025-.726.545-2.01 1.79-2.592 2.513-1.73 2.149-2.812 4.65-3.21 7.416-.144 1.001-.143 3.023.002 4.046.397 2.797 1.556 5.437 3.311 7.538a15.122 15.122 0 005.02 3.93c1.846.89 3.502 1.327 5.596 1.478 3.68.264 7.448-.928 10.37-3.28.744-.599 1.985-1.875 2.544-2.618a15.044 15.044 0 002.175-14.136c-.472-1.33-1.274-2.808-2.177-4.013-.546-.728-1.786-2.002-2.541-2.61A14.97 14.97 0 0018.19 1.15c-.742-.111-2.63-.188-3.286-.133zm2.578 1.929a13.157 13.157 0 0110.972 8.903c1.607 4.83.302 10.085-3.384 13.619-4.67 4.477-11.77 4.896-17.001 1.004-.714-.532-2.027-1.843-2.563-2.56-2.627-3.519-3.35-7.946-1.975-12.08 1.595-4.795 5.872-8.276 10.916-8.886a14.564 14.564 0 013.035 0z" fill="#F5F5F5" stroke="#181818"/><path d="M15.357 9.473c.032-.155.296-.431.44-.46.176-.037.456.011.585.1.208.145.282.361.283.834v.411l.282.09c.844.268 1.608 1.01 1.89 1.836.05.145.11.424.136.62.042.322.039.373-.036.548a.636.636 0 01-.834.36c-.278-.103-.389-.271-.435-.658-.05-.415-.132-.64-.326-.89a1.685 1.685 0 00-2.69 0 1.694 1.694 0 00-.323.956c0 .883.767 1.63 1.675 1.63.136 0 .392.028.57.064 1.785.357 2.835 2.125 2.262 3.807-.28.822-1.046 1.565-1.889 1.833l-.281.09-.001.411c-.001.318-.02.451-.081.584-.201.432-.817.489-1.119.102-.107-.136-.115-.176-.129-.627l-.015-.48-.13-.037a2.967 2.967 0 01-2.161-2.427c-.067-.438-.025-.644.169-.834.44-.428 1.125-.117 1.129.512.003.625.523 1.287 1.163 1.482 1.288.392 2.496-.786 2.093-2.043-.205-.643-.88-1.134-1.56-1.135a3.065 3.065 0 01-2.137-.872c-.829-.808-1.098-1.954-.713-3.035.313-.877 1.084-1.58 2.02-1.841l.136-.038v-.38c0-.209.012-.44.027-.513z" fill="#F5F5F5"/></svg>