<svg width="32" height="32" fill="none" xmlns="http://www.w3.org/2000/svg"><path fill-rule="evenodd" clip-rule="evenodd" d="M13.777 1.095c-2.234.364-4.304 1.168-6.12 2.377C4.346 5.678 2.052 9.1 1.24 13.044c-.255 1.239-.319 3.761-.128 5.06.489 3.329 1.898 6.136 4.27 8.507 2.37 2.37 5.085 3.742 8.433 4.267 1.307.204 3.812.145 5.126-.123 6.285-1.277 11.014-6.284 11.95-12.651.19-1.295.126-3.822-.127-5.052-1.097-5.321-4.88-9.62-9.956-11.31-1.736-.577-2.48-.699-4.508-.734-1.263-.023-2.007.003-2.522.087zm4.795 1.574c2.699.542 5.017 1.789 6.985 3.757 2.002 2.003 3.21 4.255 3.765 7.025.276 1.373.276 3.7 0 5.073-.557 2.779-1.757 5.019-3.764 7.026-2.017 2.018-4.234 3.205-7.042 3.77-1.343.27-3.688.27-5.032 0-2.808-.565-5.025-1.752-7.042-3.77-2.007-2.007-3.206-4.247-3.764-7.026-.276-1.374-.276-3.7 0-5.073.556-2.77 1.762-5.021 3.765-7.025 2.273-2.274 4.962-3.56 8.278-3.955.697-.083 3.054.038 3.85.198zM14.56 8.605c-1.995.452-3.56 1.457-4.655 2.988-2.187 3.057-1.801 7.241.904 9.818 1.558 1.483 3.44 2.176 5.598 2.06 1.096-.058 1.787-.226 2.72-.658.873-.404 1.373-.744 2.064-1.402 2.706-2.577 3.091-6.761.905-9.818-.965-1.349-2.361-2.329-4.024-2.825-.941-.28-2.645-.36-3.512-.163zm2.953 1.543c.27.068.817.284 1.216.479.59.288.87.5 1.5 1.13.629.629.841.911 1.13 1.5.491 1.005.644 1.652.644 2.73 0 1.068-.153 1.728-.625 2.688-.757 1.543-2.224 2.728-3.928 3.173-.739.194-2.161.194-2.9 0-1.703-.445-3.17-1.63-3.928-3.173-.472-.96-.625-1.62-.625-2.688 0-1.078.153-1.725.645-2.73.29-.591.498-.868 1.13-1.496 1.028-1.024 2.008-1.535 3.336-1.742.627-.097 1.749-.037 2.405.129zm1.449 6.297c-.126 1.222-1.283 2.38-2.505 2.506l-.457.047v.756c0 .873-.044.844.949.633 1.677-.356 3.093-1.772 3.449-3.45.21-.994.24-.95-.633-.95h-.756l-.047.458z" fill="#F5F5F5" stroke="#181818" stroke-width=".5"/></svg>